<svg width="22" height="22" viewBox="0 0 22 22" version="1.1" xmlns="http://www.w3.org/2000/svg" xmlns:xlink="http://www.w3.org/1999/xlink">
<title>fb</title>
<desc>Created using Figma</desc>
<g id="Canvas" transform="translate(-190 -4787)">
<g id="fb">
<use xlink:href="#path0_fill" transform="translate(190 4787)" fill="#332F40"/>
</g>
</g>
<defs>
<path id="path0_fill" fill-rule="evenodd" d="M 1.2142 0L 20.7858 0C 21.4564 0 22 0.543457 22 1.21436L 22 20.7856C 22 21.4565 21.4564 22 20.7858 22L 15.1797 21.9995L 15.1797 13.4805L 18.0392 13.4805L 18.4678 10.1602L 15.1797 10.1602L 15.1797 8.04004C 15.1797 7.07861 15.4467 6.42334 16.8283 6.42334L 18.5865 6.42334L 18.5865 3.45605C 17.7356 3.36572 16.8803 3.32178 16.0246 3.32471C 13.4898 3.32471 11.7547 4.87207 11.7547 7.71338L 11.7547 10.1626L 8.88359 10.1626L 8.88359 13.4829L 11.7514 13.4829L 11.7514 21.9995L 1.2142 22C 0.543625 22 0 21.4565 0 20.7856L 0 1.21436C 0 0.543457 0.543625 0 1.2142 0Z"/>
</defs>
</svg>
