<svg width="25" height="20" viewBox="0 0 25 20" version="1.1" xmlns="http://www.w3.org/2000/svg" xmlns:xlink="http://www.w3.org/1999/xlink">
<title>twitter</title>
<desc>Created using Figma</desc>
<g id="Canvas" transform="translate(-144 -4787)">
<g id="twitter">
<use xlink:href="#path0_fill" transform="translate(144 4787)" fill="#332F40"/>
</g>
</g>
<defs>
<path id="path0_fill" d="M 7.862 20C 17.296 20 22.456 12.3047 22.456 5.63144C 22.456 5.41287 22.456 5.19529 22.441 4.97869C 23.4448 4.26381 24.3114 3.37867 25 2.3647C 24.0639 2.77309 23.0708 3.04092 22.054 3.15923C 23.1247 2.52812 23.9261 1.53548 24.309 0.366057C 23.3022 0.954283 22.2006 1.36884 21.052 1.59183C 20.2787 0.782212 19.2559 0.246107 18.1419 0.0664707C 17.0279 -0.113166 15.8848 0.0736807 14.8895 0.598097C 13.8943 1.12251 13.1023 1.95526 12.6362 2.96748C 12.1701 3.9797 12.0558 5.11495 12.311 6.19756C 10.2718 6.09691 8.2768 5.57516 6.45564 4.66618C 4.63448 3.7572 3.02784 2.48131 1.74 0.921345C 1.08409 2.03306 0.8832 3.34911 1.17823 4.60154C 1.47326 5.85397 2.24202 6.9486 3.328 7.66257C 2.51174 7.63876 1.71328 7.42196 1 7.03049C 1 7.05117 1 7.07283 1 7.09449C 1.00032 8.26041 1.41026 9.39034 2.16028 10.2926C 2.9103 11.1949 3.95423 11.8139 5.115 12.0448C 4.35987 12.2476 3.56758 12.2772 2.799 12.1315C 3.12676 13.1349 3.76486 14.0124 4.62407 14.6412C 5.48328 15.27 6.52061 15.6186 7.591 15.6384C 5.77474 17.0438 3.53106 17.8067 1.221 17.8044C 0.812904 17.8037 0.405204 17.7793 1.42109e-15 17.7316C 2.34564 19.2136 5.07491 19.9997 7.862 19.9961"/>
</defs>
</svg>
